<svg width="128" height="128" viewBox="0 0 128 128" fill="none" xmlns="http://www.w3.org/2000/svg">
<g clip-path="url(#clip0_1_3)">
<circle cx="64" cy="64" r="64" fill="#00B5D8"/>
<path d="M74.5913 50C74.4019 47.6326 73.5141 45.786 71.9279 44.4602C70.3654 43.1345 67.9862 42.4716 64.7901 42.4716C62.7541 42.4716 61.0851 42.7202 59.783 43.2173C58.5046 43.6908 57.5576 44.3419 56.9421 45.1705C56.3266 45.9991 56.007 46.946 55.9833 48.0114C55.936 48.8873 56.0898 49.6804 56.445 50.3906C56.8237 51.0772 57.4156 51.7045 58.2205 52.2727C59.0254 52.8172 60.0553 53.3144 61.31 53.7642C62.5648 54.214 64.0562 54.6165 65.7844 54.9716L71.7504 56.25C75.775 57.1023 79.2196 58.2268 82.0842 59.6236C84.9487 61.0204 87.2925 62.6657 89.1154 64.5597C90.9383 66.4299 92.2759 68.5369 93.1282 70.8807C94.0041 73.2244 94.454 75.7812 94.4776 78.5511C94.454 83.3333 93.2584 87.3816 90.891 90.696C88.5236 94.0104 85.1381 96.5317 80.7347 98.2599C76.355 99.9882 71.0875 100.852 64.9322 100.852C58.6112 100.852 53.0951 99.9171 48.3839 98.0469C43.6964 96.1766 40.0505 93.3002 37.4464 89.4176C34.8659 85.5114 33.5638 80.5161 33.5401 74.4318H52.2901C52.4085 76.6572 52.9648 78.5275 53.9592 80.0426C54.9535 81.5578 56.3503 82.706 58.1495 83.4872C59.9724 84.2685 62.1386 84.6591 64.6481 84.6591C66.7551 84.6591 68.5188 84.3987 69.9393 83.8778C71.3597 83.357 72.4369 82.6349 73.1708 81.7116C73.9047 80.7884 74.2835 79.7348 74.3072 78.5511C74.2835 77.4384 73.9165 76.4678 73.2063 75.6392C72.5198 74.7869 71.3834 74.0294 69.7972 73.3665C68.2111 72.6799 66.0685 72.0407 63.3697 71.4489L56.1254 69.8864C49.686 68.4896 44.6078 66.1577 40.891 62.8906C37.1978 59.5999 35.363 55.1136 35.3867 49.4318C35.363 44.8153 36.5941 40.7789 39.0799 37.3224C41.5894 33.8423 45.0576 31.1316 49.4847 29.1903C53.9355 27.2491 59.0373 26.2784 64.7901 26.2784C70.6613 26.2784 75.7395 27.2609 80.0245 29.2259C84.3095 31.1908 87.6121 33.9607 89.9322 37.5355C92.2759 41.0866 93.4596 45.2415 93.4833 50H74.5913Z" fill="white"/>
</g>
<defs>
<clipPath id="clip0_1_3">
<rect width="128" height="128" fill="white"/>
</clipPath>
</defs>
</svg>
